<svg xmlns="http://www.w3.org/2000/svg" width="300.523" height="162.087" xmlns:v="https://vecta.io/nano"><g fill-rule="evenodd"><path d="M150.262-.001c82.983.011 150.251 67.28 150.261 150.263a151.49 151.49 0 0 1-.247 8.525l-.184 3.3H.431l-.185-3.3A152.44 152.44 0 0 1 0 150.262C.009 67.278 67.278.009 150.262-.001z" fill="#5c5c5e"/><path d="M150.262 3.495c81.053.01 146.757 65.714 146.766 146.767 0 2.8-.086 5.572-.241 8.33H3.735a148.39 148.39 0 0 1-.24-8.33C3.504 69.209 69.209 3.504 150.262 3.495z" fill="#e7e8e8"/><path d="M203.258 113.814l58.961-42.309a136.1 136.1 0 0 1 24.8 78.525l-.034 2.616-72.569-.428.041-2.188c.017-12.927-3.888-25.555-11.199-36.216z" fill="#ed1c24"/><path d="M262.224 71.504l-58.963 42.308a64.36 64.36 0 0 0-32.258-24.546l22.834-68.889c27.657 9.328 51.615 27.239 68.387 51.127z" fill="#f58220"/><path d="M193.838 20.373l-22.836 68.893a64.5 64.5 0 0 0-40.743-.244l-22.018-69.154a137.36 137.36 0 0 1 85.6.505z" fill="#ffcb05"/><path d="M108.244 19.868l22.018 69.154a64.34 64.34 0 0 0-32.558 24.157l-58.453-43a137.05 137.05 0 0 1 68.993-50.311z" fill="#a4ba21"/><path d="M39.244 70.175l58.455 43c-7.589 10.79-11.652 23.665-11.631 36.856l.017 1.428-72.564-.426-.012-1a136.12 136.12 0 0 1 25.735-79.858z" fill="#33baf2"/></g><g fill="#fff"><path d="M139.094 50.621v-1.2l3.26-5.084.344-.529.339-.533.266-.483c.097-.177.178-.363.24-.556a5.26 5.26 0 0 0 .132-.564 3.69 3.69 0 0 0 .062-.68q0-1.908-1.275-1.908-1.523 0-1.522 2.364v.425h-1.691v-.44a4.5 4.5 0 0 1 .742-2.778c.59-.689 1.476-1.05 2.379-.97a2.93 2.93 0 0 1 2.3.865c.553.692.829 1.565.772 2.449.002.347-.027.693-.088 1.035a3.97 3.97 0 0 1-.313.947q-.224.475-.387.746-.163.271-.517.819l-.1.154-2.944 4.5h4.049v1.421zm10.77.132a2.81 2.81 0 0 1-2.387-.944 4.52 4.52 0 0 1-.718-2.773h1.689l.026.691a3.58 3.58 0 0 0 .117.633 1.71 1.71 0 0 0 .239.546 1.13 1.13 0 0 0 .421.355 1.38 1.38 0 0 0 .634.139 1.52 1.52 0 0 0 .518-.081 1.23 1.23 0 0 0 .379-.212 1.06 1.06 0 0 0 .262-.363 2.64 2.64 0 0 0 .166-.455 3.78 3.78 0 0 0 .092-.576l.043-.637.008-.719-.027-.962a4.94 4.94 0 0 0-.112-.75 1.52 1.52 0 0 0-.243-.575 1.15 1.15 0 0 0-.422-.336 1.45 1.45 0 0 0-.641-.127 1.31 1.31 0 0 0-.858.3 1.96 1.96 0 0 0-.563.753h-1.439v-6.852h5.524v1.683h-3.994l-.1 3.547a2.42 2.42 0 0 1 1.847-.711 2.81 2.81 0 0 1 1.3.278 2.04 2.04 0 0 1 .846.8 3.96 3.96 0 0 1 .445 1.189 7.53 7.53 0 0 1 .138 1.523 11.49 11.49 0 0 1-.089 1.494c-.055.433-.159.858-.309 1.267a3.13 3.13 0 0 1-.575 1c-.252.278-.566.495-.915.633a3.37 3.37 0 0 1-1.302.242zm10.524.006c-.91.06-1.793-.324-2.369-1.031a4.38 4.38 0 0 1-.8-2.754v-5.509a4.42 4.42 0 0 1 .78-2.774c.627-.643 1.488-1.006 2.387-1.006s1.76.363 2.387 1.006a4.38 4.38 0 0 1 .788 2.77v5.509a4.39 4.39 0 0 1-.795 2.762 2.83 2.83 0 0 1-2.378 1.027zm0-1.39q1.468 0 1.468-2.379v-5.54a6.25 6.25 0 0 0-.058-.907 2.94 2.94 0 0 0-.213-.742 1.18 1.18 0 0 0-.456-.541 1.55 1.55 0 0 0-1.483 0 1.18 1.18 0 0 0-.456.541c-.104.237-.176.486-.213.742a6.26 6.26 0 0 0-.058.907v5.54q.001 2.378 1.469 2.38z"/><circle cx="155.16" cy="49" r="1"/><path d="M143.843 54.308h14.34v1.328h-14.34zm-4.835 17.083v-1.206l3.261-5.084.344-.529q.243-.375.339-.533l.266-.483a3.21 3.21 0 0 0 .24-.556 5.31 5.31 0 0 0 .132-.564 3.71 3.71 0 0 0 .062-.681q0-1.907-1.275-1.908-1.523 0-1.522 2.364v.426h-1.692v-.433a4.5 4.5 0 0 1 .742-2.778 2.81 2.81 0 0 1 2.379-.969 2.93 2.93 0 0 1 2.3.865 3.56 3.56 0 0 1 .772 2.45c.002.347-.027.693-.088 1.035a4 4 0 0 1-.313.947q-.224.475-.387.745-.163.27-.517.819l-.1.154-2.944 4.5h4.049v1.421zm10.801.142a3.1 3.1 0 0 1-2.31-.823c-.577-.644-.876-1.489-.834-2.352a.78.78 0 0 1-.007-.139h1.7a2.62 2.62 0 0 0 .317 1.448c.276.341.708.518 1.144.468q1.436 0 1.437-2.751v-1.939c-.418.614-1.138.951-1.877.88a3.05 3.05 0 0 1-1.318-.258 1.97 1.97 0 0 1-.854-.765 3.61 3.61 0 0 1-.444-1.155 7.48 7.48 0 0 1-.136-1.515 7.01 7.01 0 0 1 .178-1.641 4.23 4.23 0 0 1 .549-1.314 2.55 2.55 0 0 1 .993-.9 3.15 3.15 0 0 1 1.456-.32 3.03 3.03 0 0 1 1.426.324 2.6 2.6 0 0 1 .985.9 4.37 4.37 0 0 1 .556 1.325 6.87 6.87 0 0 1 .185 1.645v4.311c.003.479-.029.958-.093 1.433a5.62 5.62 0 0 1-.321 1.244 3.38 3.38 0 0 1-.579 1 2.46 2.46 0 0 1-.9.649 3.1 3.1 0 0 1-1.253.245zm-.007-6.491a1.61 1.61 0 0 0 1.452-.872v-1.908q0-2.41-1.452-2.411a1.27 1.27 0 0 0-.7.19 1.24 1.24 0 0 0-.459.528 2.93 2.93 0 0 0-.236.745 5.12 5.12 0 0 0-.073.908q0 .409 0 .645a7.01 7.01 0 0 0 .035.575c.013.181.042.361.085.537a2.51 2.51 0 0 0 .163.425.97.97 0 0 0 .262.352c.117.088.247.155.386.2a1.61 1.61 0 0 0 .537.083zm10.701 6.491a3.1 3.1 0 0 1-2.311-.823c-.576-.644-.876-1.489-.833-2.352a.72.72 0 0 1-.008-.139h1.7a2.61 2.61 0 0 0 .317 1.448 1.28 1.28 0 0 0 1.143.468q1.438 0 1.438-2.751v-1.939c-.418.614-1.138.951-1.878.88a3.05 3.05 0 0 1-1.318-.258 1.97 1.97 0 0 1-.853-.765 3.59 3.59 0 0 1-.445-1.155 7.48 7.48 0 0 1-.135-1.515 6.97 6.97 0 0 1 .178-1.641 4.21 4.21 0 0 1 .549-1.314 2.55 2.55 0 0 1 .992-.9 3.14 3.14 0 0 1 1.456-.32c.494-.01.984.101 1.425.324a2.6 2.6 0 0 1 .985.9 4.38 4.38 0 0 1 .556 1.325 6.85 6.85 0 0 1 .186 1.645v4.311a10.25 10.25 0 0 1-.092 1.433 5.62 5.62 0 0 1-.321 1.244 3.39 3.39 0 0 1-.579 1 2.45 2.45 0 0 1-.9.649 3.1 3.1 0 0 1-1.252.245zm-.008-6.491a1.61 1.61 0 0 0 1.453-.872v-1.908q0-2.41-1.453-2.411a1.27 1.27 0 0 0-.7.19 1.25 1.25 0 0 0-.459.528 2.9 2.9 0 0 0-.236.745 5.1 5.1 0 0 0-.073.908q0 .409 0 .645c0 .156.013.348.035.575a3.2 3.2 0 0 0 .085.537c.042.146.096.288.163.425a.96.96 0 0 0 .262.352 1.32 1.32 0 0 0 .387.2 1.6 1.6 0 0 0 .536.083z"/><circle cx="155.162" cy="70" r="1"/><path d="M87.582 78.547l11.207-8.469.785 1.038-11.207 8.469zm6.451 16.098l-.712-.942-.457-5.9q-.012-.181-.044-.616l-.05-.618-.077-.535a3.24 3.24 0 0 0-.141-.576 5.47 5.47 0 0 0-.23-.518 3.64 3.64 0 0 0-.353-.568q-1.128-1.491-2.124-.738-1.19.9.207 2.747l.251.333-1.322 1-.256-.338a4.4 4.4 0 0 1-1.062-2.609 2.75 2.75 0 0 1 1.286-2.162c.632-.557 1.477-.807 2.31-.685a3.48 3.48 0 0 1 2.051 1.456 5.43 5.43 0 0 1 .542.862c.144.293.25.604.316.924l.138.81.08.947a1.19 1.19 0 0 0 .013.179l.357 5.253 3.164-2.392.84 1.11zm8.79-6.646l-1.991-2.632-2.886 2.181-1.114-1.473-1.9-7.853 1.641-1.242 4.634 6.127 1.111-.84.949 1.256-1.111.839 1.991 2.632zm-4.492-2.715l1.551-1.173-3.364-4.449zm12.602-3.249a3.03 3.03 0 0 1-2.291.722 3.22 3.22 0 0 1-2.042-1.345.7.7 0 0 1-.088-.1l1.328-1a2.56 2.56 0 0 0 1.1.944c.417.104.859-.013 1.17-.31q1.122-.849-.5-3l-1.146-1.515c.037.728-.326 1.418-.947 1.8a2.98 2.98 0 0 1-1.182.576 1.93 1.93 0 0 1-1.119-.094c-.378-.152-.726-.369-1.03-.64a7.25 7.25 0 0 1-1-1.1 6.84 6.84 0 0 1-.831-1.387c-.192-.427-.309-.884-.348-1.35a2.5 2.5 0 0 1 .246-1.287 3.09 3.09 0 0 1 .948-1.111 2.95 2.95 0 0 1 1.305-.588 2.54 2.54 0 0 1 1.3.122 4.26 4.26 0 0 1 1.217.706 6.74 6.74 0 0 1 1.118 1.176l2.547 3.369a9.97 9.97 0 0 1 .774 1.174 5.52 5.52 0 0 1 .485 1.161 3.32 3.32 0 0 1 .138 1.125 2.4 2.4 0 0 1-.32 1.038 3.03 3.03 0 0 1-.832.914zm-3.841-5.064c.482-.354.722-.951.619-1.54l-1.127-1.491q-1.425-1.884-2.559-1.025a1.24 1.24 0 0 0-.435.561 1.23 1.23 0 0 0-.046.685 2.89 2.89 0 0 0 .256.722 4.9 4.9 0 0 0 .479.752q.242.32.384.5l.367.429a3.08 3.08 0 0 0 .384.369 2.52 2.52 0 0 0 .377.237.96.96 0 0 0 .413.119 1.27 1.27 0 0 0 .422-.068 1.57 1.57 0 0 0 .466-.25z"/><circle cx="106.162" cy="83.999" r="1"/><path d="M84.009 76.725l-6.268-8.288c0 .012-.024.05-.078.117l-.21.249-.28.325-.311.348-.284.315-.214.237-.089.1-.758-1a4.69 4.69 0 0 0 1.243-2.647l1-.758 7.569 10.008zm6.076-4.429c-.665.605-1.579.856-2.46.675a4.37 4.37 0 0 1-2.229-1.731 3.91 3.91 0 0 1-.833-1.761c-.073-.555.002-1.12.219-1.637a3.15 3.15 0 0 1-2.815-1.4c-.56-.652-.864-1.485-.857-2.345a2.75 2.75 0 0 1 1.252-2.014c.617-.547 1.449-.784 2.261-.644.827.233 1.543.754 2.017 1.47a3.15 3.15 0 0 1 .593 3.081 3.35 3.35 0 0 1 1.64.249c.587.291 1.091.727 1.462 1.267.632.731 1.004 1.65 1.06 2.614a2.79 2.79 0 0 1-1.31 2.176zm-4.529-5.988a1.14 1.14 0 0 0 .393-.534 1.13 1.13 0 0 0 .016-.643 3.1 3.1 0 0 0-.249-.656 4.64 4.64 0 0 0-.425-.662 2.56 2.56 0 0 0-1.058-.884 1.06 1.06 0 0 0-1.092.187 1.08 1.08 0 0 0-.492 1.006c.069.465.264.901.565 1.262a4.6 4.6 0 0 0 .52.588 3.08 3.08 0 0 0 .564.419 1.12 1.12 0 0 0 .626.156 1.16 1.16 0 0 0 .632-.235zm3.037 5.252c.256-.043.498-.151.7-.314a1.46 1.46 0 0 0 .487-.586 1.13 1.13 0 0 0 .062-.683 2.67 2.67 0 0 0-.26-.714 5.72 5.72 0 0 0-.5-.769c-.224-.305-.485-.581-.778-.821a1.74 1.74 0 0 0-.872-.37 1.25 1.25 0 0 0-.923.261 1.4 1.4 0 0 0-.461.6c-.085.223-.107.466-.061.7.046.25.127.492.24.719a4.58 4.58 0 0 0 .458.732 5.53 5.53 0 0 0 .611.695 2.66 2.66 0 0 0 .622.441 1.12 1.12 0 0 0 .675.113zm9.745-5.511c-.652.601-1.553.852-2.422.674a4.43 4.43 0 0 1-2.2-1.742l1.322-1 .43.524a3.49 3.49 0 0 0 .464.427 1.69 1.69 0 0 0 .509.284 1.09 1.09 0 0 0 .539.029 1.34 1.34 0 0 0 .577-.265c.14-.101.261-.226.357-.369a1.19 1.19 0 0 0 .17-.39 1.02 1.02 0 0 0-.009-.439 2.6 2.6 0 0 0-.14-.455 3.96 3.96 0 0 0-.267-.5q-.181-.295-.344-.523-.163-.228-.419-.566-.342-.452-.589-.736a4.64 4.64 0 0 0-.53-.519 1.48 1.48 0 0 0-.53-.306 1.11 1.11 0 0 0-.528-.014 1.41 1.41 0 0 0-.576.279 1.28 1.28 0 0 0-.49.745 1.94 1.94 0 0 0 0 .922l-1.128.853-4.05-5.354 4.317-3.264 1 1.315-3.122 2.361 2.017 2.83a2.37 2.37 0 0 1 1.022-1.647 2.76 2.76 0 0 1 1.179-.55 2.01 2.01 0 0 1 1.136.128 3.88 3.88 0 0 1 1.05.667 7.29 7.29 0 0 1 1.008 1.106 11.07 11.07 0 0 1 .814 1.221 5.76 5.76 0 0 1 .508 1.173c.117.362.164.742.141 1.121a2.4 2.4 0 0 1-.341 1.036 3.3 3.3 0 0 1-.875.944z"/><circle cx="93.162" cy="67.999" r="1"/><path d="M205.337 66.717c-.713-.465-1.193-1.214-1.315-2.057a3.37 3.37 0 0 1 .809-2.368l.252-.332 1.322 1-.164.218a4.82 4.82 0 0 0-.427.683 2.32 2.32 0 0 0-.2.623.96.96 0 0 0 .083.6 1.54 1.54 0 0 0 .472.537c.164.131.353.227.555.283a1.07 1.07 0 0 0 .515.01 1.43 1.43 0 0 0 .5-.245 3.4 3.4 0 0 0 .481-.428q.226-.243.495-.6a3.06 3.06 0 0 0 .7-1.553 1.51 1.51 0 0 0-.6-1.281c-.029-.028-.09-.077-.182-.147l1-1.322.169.127a1.7 1.7 0 0 0 1.3.4c.488-.158.904-.484 1.174-.92.319-.368.527-.819.6-1.3 0-.429-.225-.827-.594-1.046a1.55 1.55 0 0 0-.651-.312 1 1 0 0 0-.61.079 2.15 2.15 0 0 0-.555.369 4.83 4.83 0 0 0-.55.608l-.15.2-1.322-1 .252-.331a3.34 3.34 0 0 1 2.054-1.412c.85-.106 1.706.155 2.351.719a2.97 2.97 0 0 1 1.318 2.065 3.39 3.39 0 0 1-.81 2.371 3.1 3.1 0 0 1-1.465 1.145c-.527.177-1.1.162-1.618-.042a2.3 2.3 0 0 1 .406 1.659 4.08 4.08 0 0 1-.875 1.935c-.534.804-1.321 1.408-2.236 1.715a2.79 2.79 0 0 1-2.484-.65zm5.867 4.431c-.747-.491-1.209-1.313-1.24-2.206a4.29 4.29 0 0 1 1-2.624l3.255-4.3a4.33 4.33 0 0 1 2.249-1.706c.871-.131 1.758.095 2.459.627s1.159 1.324 1.269 2.198a4.3 4.3 0 0 1-1.021 2.629l-3.256 4.3a4.3 4.3 0 0 1-2.254 1.687 2.77 2.77 0 0 1-2.461-.605zm.822-1.087q1.148.867 2.554-.992l3.273-4.321a6.28 6.28 0 0 0 .492-.743c.122-.222.213-.46.272-.706a1.15 1.15 0 0 0-.037-.691c-.096-.236-.259-.439-.467-.586a1.35 1.35 0 0 0-.692-.291 1.16 1.16 0 0 0-.676.154 2.84 2.84 0 0 0-.6.454 6.07 6.07 0 0 0-.582.676l-3.273 4.327q-1.411 1.855-.264 2.723zm7.558 7.426c-.749-.489-1.213-1.311-1.246-2.205a4.28 4.28 0 0 1 1-2.624l3.255-4.3c.538-.804 1.33-1.405 2.249-1.707.871-.131 1.758.095 2.459.627s1.159 1.324 1.269 2.198a4.29 4.29 0 0 1-1.021 2.629l-3.255 4.305a4.29 4.29 0 0 1-2.254 1.687 2.77 2.77 0 0 1-2.456-.61zm.822-1.087q1.145.868 2.553-.991l3.273-4.329a5.93 5.93 0 0 0 .491-.743 2.84 2.84 0 0 0 .273-.705 1.15 1.15 0 0 0-.037-.691c-.212-.471-.648-.801-1.159-.877-.236-.019-.472.034-.676.153a2.85 2.85 0 0 0-.6.454 6.13 6.13 0 0 0-.581.676l-3.273 4.327q-1.412 1.86-.264 2.727z"/><circle cx="216.16" cy="73" r="1"/><path d="M203.728 71.484l.785-1.038 11.208 8.469-.785 1.038zm-10.726 11.4a2.96 2.96 0 0 1-1.315-2.057 3.37 3.37 0 0 1 .81-2.367l.251-.332 1.322 1-.165.218a4.82 4.82 0 0 0-.427.683 2.32 2.32 0 0 0-.2.623.96.96 0 0 0 .083.6c.113.214.275.398.473.537a1.57 1.57 0 0 0 .554.283 1.07 1.07 0 0 0 .515.01c.181-.048.351-.131.5-.245.174-.127.335-.271.481-.429a7.69 7.69 0 0 0 .495-.6 3.07 3.07 0 0 0 .7-1.553 1.51 1.51 0 0 0-.6-1.281 2.44 2.44 0 0 0-.182-.147l1-1.322.169.127a1.7 1.7 0 0 0 1.3.4 2.18 2.18 0 0 0 1.175-.92c.319-.368.527-.819.6-1.3.001-.429-.225-.826-.593-1.046a1.56 1.56 0 0 0-.651-.312 1.01 1.01 0 0 0-.611.078 2.17 2.17 0 0 0-.554.37 4.81 4.81 0 0 0-.55.608l-.151.2-1.322-1 .251-.331a3.34 3.34 0 0 1 2.054-1.412c.85-.107 1.706.155 2.351.719.716.466 1.197 1.219 1.318 2.065a3.39 3.39 0 0 1-.81 2.371c-.36.522-.871.922-1.465 1.145a2.37 2.37 0 0 1-1.619-.043 2.3 2.3 0 0 1 .406 1.659c-.116.711-.417 1.378-.874 1.935a4.35 4.35 0 0 1-2.237 1.714c-.883.201-1.809-.041-2.482-.648zm6.294 4.589l1.991-2.632-2.886-2.181 1.114-1.473 7.04-3.965 1.642 1.241-4.634 6.127 1.111.84-.949 1.255-1.111-.839-1.991 2.632zm1.388-5.061l1.552 1.174 3.365-4.449zm6.558 11.242a3.04 3.04 0 0 1-1.318-2.007c-.071-.844.195-1.682.738-2.331a.72.72 0 0 1 .076-.113l1.328 1a2.55 2.55 0 0 0-.608 1.318c.014.43.246.822.616 1.041q1.123.848 2.748-1.3l1.147-1.515c-.69.233-1.451.071-1.987-.422-.362-.257-.661-.593-.876-.981-.179-.337-.254-.72-.215-1.1.044-.405.157-.799.335-1.165a7.35 7.35 0 0 1 .789-1.263 6.92 6.92 0 0 1 1.11-1.178 4.12 4.12 0 0 1 1.2-.7 2.5 2.5 0 0 1 1.305-.113c.485.094.94.303 1.327.61a2.95 2.95 0 0 1 .922 1.1 2.54 2.54 0 0 1 .238 1.285 4.27 4.27 0 0 1-.348 1.364c-.219.497-.497.965-.828 1.395l-2.548 3.369c-.281.376-.588.731-.919 1.064a5.54 5.54 0 0 1-.986.782c-.321.205-.674.353-1.044.44a2.42 2.42 0 0 1-1.087-.025c-.406-.106-.785-.295-1.115-.555zm3.829-5.075c.472.367 1.111.436 1.65.177l1.128-1.492q1.424-1.883.29-2.741a1.25 1.25 0 0 0-.658-.266c-.233-.018-.466.032-.672.142a2.88 2.88 0 0 0-.625.443 4.95 4.95 0 0 0-.593.667l-.378.505-.313.47a3.15 3.15 0 0 0-.251.471 2.5 2.5 0 0 0-.125.427.94.94 0 0 0 0 .429 1.28 1.28 0 0 0 .181.389 1.57 1.57 0 0 0 .366.379z"/><circle cx="204.161" cy="89" r="1"/><path d="M234.246 118.838a2.96 2.96 0 0 1-.089-2.439c.401-.767 1.081-1.351 1.9-1.631l.384-.159.632 1.532-.252.1a4.8 4.8 0 0 0-.714.372 2.34 2.34 0 0 0-.492.433.97.97 0 0 0-.235.563 1.77 1.77 0 0 0 .469 1.227 1.08 1.08 0 0 0 .439.27 1.4 1.4 0 0 0 .553.042 3.4 3.4 0 0 0 .631-.126c.248-.075.492-.164.731-.264.546-.19 1.027-.532 1.387-.985.275-.418.325-.946.132-1.408l-.082-.22 1.532-.632.081.2c.154.446.486.808.916 1a2.17 2.17 0 0 0 1.479-.2 2.59 2.59 0 0 0 1.177-.821 1.22 1.22 0 0 0 .019-1.2 1.56 1.56 0 0 0-.4-.6 1 1 0 0 0-.566-.241c-.222-.023-.446-.01-.664.036a4.76 4.76 0 0 0-.782.245l-.232.1-.631-1.532.385-.159a3.34 3.34 0 0 1 2.485-.173 3 3 0 0 1 1.66 1.812 2.97 2.97 0 0 1 .088 2.448 3.38 3.38 0 0 1-1.9 1.631 3.1 3.1 0 0 1-1.844.245c-.544-.116-1.031-.42-1.373-.859a2.3 2.3 0 0 1-.492 1.636 4.07 4.07 0 0 1-1.735 1.223c-.869.422-1.854.542-2.8.343a2.79 2.79 0 0 1-1.797-1.809zm2.797 6.763c-.417-.783-.431-1.719-.038-2.514a4.43 4.43 0 0 1 2.243-1.686l.632 1.532-.616.283a3.52 3.52 0 0 0-.53.342 1.72 1.72 0 0 0-.4.419 1.12 1.12 0 0 0-.164.514 1.33 1.33 0 0 0 .111.625c.063.161.153.309.266.439a1.22 1.22 0 0 0 .334.264 1.04 1.04 0 0 0 .427.1 2.56 2.56 0 0 0 .475-.02 3.78 3.78 0 0 0 .556-.131l.593-.2.653-.261q.525-.217.861-.384c.222-.11.436-.238.638-.381a1.5 1.5 0 0 0 .43-.436 1.12 1.12 0 0 0 .147-.507 1.43 1.43 0 0 0-.124-.628 1.28 1.28 0 0 0-.6-.662 1.92 1.92 0 0 0-.893-.229l-.539-1.308 6.205-2.559 2.063 5-1.525.628-1.491-3.616-3.249 1.233c.624.257 1.109.769 1.332 1.406a2.74 2.74 0 0 1 .233 1.279 1.99 1.99 0 0 1-.412 1.067 3.88 3.88 0 0 1-.911.847c-.417.276-.861.509-1.326.694a11.11 11.11 0 0 1-1.387.478c-.413.111-.836.176-1.263.194a3.06 3.06 0 0 1-1.12-.148c-.347-.124-.661-.327-.916-.593a3.27 3.27 0 0 1-.695-1.081zm12.224 1.668l-1.207 5.294-1.539.635-4.608-2.9 1.539-.634 3.356 2.063.92-3.825z"/></g><path d="M150.261 92.107c32.1 0 58.129 26.262 58.129 58.646q0 .5-.008 1H92.139q-.007-.5-.008-1c0-32.384 26.031-58.646 58.13-58.646z" fill="#5c5c5e" fill-rule="evenodd"/><g fill="#fff"><path d="M59.762 134.709l-4.587 2.906-1.539-.634-1.228-5.3 1.539.635.927 3.828 3.348-2.066zm2.164-3.799l-9.608-3.959c.007.046.004.094-.008.139l-.055.321-.076.423-.09.458-.085.415-.064.314-.027.127-1.162-.479a4.69 4.69 0 0 0-.273-2.912l.478-1.161 11.6 4.781zm2.986-6.897c-.266.859-.926 1.539-1.777 1.83a4.37 4.37 0 0 1-2.8-.36 3.9 3.9 0 0 1-1.612-1.094 3.17 3.17 0 0 1-.643-1.521 3.15 3.15 0 0 1-3.136.221 3.55 3.55 0 0 1-1.929-1.584 2.76 2.76 0 0 1 .056-2.371c.255-.783.852-1.409 1.622-1.7a3.58 3.58 0 0 1 2.484.242 3.15 3.15 0 0 1 2.075 2.353 3.34 3.34 0 0 1 1.539-.617 3.85 3.85 0 0 1 1.9.349c.915.309 1.703.911 2.241 1.714a2.79 2.79 0 0 1-.02 2.538zm-6.941-2.86a1.14 1.14 0 0 0 .067-.66 1.12 1.12 0 0 0-.313-.562 3.06 3.06 0 0 0-.547-.439c-.223-.138-.457-.256-.7-.354-.424-.198-.895-.275-1.36-.225a1.07 1.07 0 0 0-.847.715 1.08 1.08 0 0 0 .088 1.117c.296.365.686.642 1.128.8a4.46 4.46 0 0 0 .747.242 3.01 3.01 0 0 0 .7.075 1.11 1.11 0 0 0 .62-.182c.188-.131.334-.315.419-.528zm5.282 2.984a1.52 1.52 0 0 0 .441-.625 1.47 1.47 0 0 0 .122-.752 1.14 1.14 0 0 0-.293-.621 2.7 2.7 0 0 0-.587-.483 5.8 5.8 0 0 0-.822-.408 4.51 4.51 0 0 0-1.087-.313c-.319-.046-.644-.003-.939.125a1.25 1.25 0 0 0-.662.693 1.39 1.39 0 0 0-.1.747c.04.234.143.452.3.63a2.72 2.72 0 0 0 .572.5 4.66 4.66 0 0 0 .766.4c.285.12.579.217.879.289.249.056.504.077.759.062.238-.01.468-.096.654-.245zm5.599-9.699a2.76 2.76 0 0 1-1.745 1.811c-.944.176-1.919.041-2.78-.385l.631-1.533q.35.144.637.233a3.46 3.46 0 0 0 .616.132 1.68 1.68 0 0 0 .583-.013 1.1 1.1 0 0 0 .479-.249 1.33 1.33 0 0 0 .362-.522 1.5 1.5 0 0 0 .12-.5 1.2 1.2 0 0 0-.052-.422c-.049-.139-.127-.267-.23-.373a2.64 2.64 0 0 0-.352-.321c-.154-.112-.317-.212-.486-.3l-.561-.276-.648-.275q-.525-.215-.881-.335a4.73 4.73 0 0 0-.721-.178 1.5 1.5 0 0 0-.612.006c-.172.048-.33.135-.461.256-.157.149-.278.331-.355.533-.12.282-.136.598-.044.89a1.93 1.93 0 0 0 .472.792l-.539 1.309-6.207-2.558 2.062-5 1.525.629-1.491 3.619 3.174 1.414a2.37 2.37 0 0 1 .045-1.937 2.75 2.75 0 0 1 .736-1.073 2 2 0 0 1 1.044-.466 3.89 3.89 0 0 1 1.243.042 7.3 7.3 0 0 1 1.431.442c.454.183.895.397 1.321.639a5.81 5.81 0 0 1 1.032.752 3.04 3.04 0 0 1 .691.9 2.4 2.4 0 0 1 .233 1.066 3.3 3.3 0 0 1-.272 1.251z"/><circle cx="65.163" cy="119" r="1"/><path d="M28.085 139.652c.13.655.061 1.335-.2 1.95a1.69 1.69 0 0 1-1.164.98 3.51 3.51 0 0 1-.864.126 7.94 7.94 0 0 1-1.042-.05l-5.854-.613.122-1.165 5.913.62.658.048c.189.005.379-.008.566-.037a1.35 1.35 0 0 0 .471-.151.93.93 0 0 0 .316-.312 1.15 1.15 0 0 0 .164-.506 1.13 1.13 0 0 0-.055-.528.92.92 0 0 0-.247-.368c-.128-.107-.273-.19-.43-.246a3.01 3.01 0 0 0-.544-.153l-.653-.09-5.913-.62.122-1.164 5.854.613a8.13 8.13 0 0 1 1.03.168 3.55 3.55 0 0 1 .819.3 1.69 1.69 0 0 1 .935 1.2zm.363-2.649l-8.778-1.341.126-.826 6.208-1.586-5.83-.89.155-1.016 8.778 1.341-.118.778-6.383 1.6 6 .916zm.9-5.68l-8.706-1.747.377-1.878c.069-.736.446-1.408 1.038-1.851.666-.316 1.424-.377 2.132-.172l3.2.643a3.42 3.42 0 0 1 2.025 1 2.35 2.35 0 0 1 .326 2.038zm-.63-1.38l.136-.678a1.99 1.99 0 0 0 .042-.5 1.56 1.56 0 0 0-.061-.379c-.038-.113-.107-.212-.2-.287a1.5 1.5 0 0 0-.685-.367l-.469-.127-.569-.119-2.83-.568-.533-.1c-.145-.026-.292-.036-.439-.044a1.31 1.31 0 0 0-.371.023 1.22 1.22 0 0 0-.293.109.67.67 0 0 0-.238.207 1.55 1.55 0 0 0-.172.324 2.68 2.68 0 0 0-.13.457l-.131.652zm1.8-4.236l-8.627-2.106.81-3.318.89.217-.519 2.125 2.851.7.422-1.727.858.21-.421 1.726 3.164.773.524-2.15.864.211zm1.07-4.317l-8.535-2.461.49-1.7a2.92 2.92 0 0 1 1.075-1.736c.589-.308 1.282-.344 1.9-.1q1.647.475 1.69 1.622l4.631.021-.33 1.146-4.325-.039-.264.915 4 1.153zm-4.518-2.581l.128-.445c.15-.381.154-.805.011-1.189a1.54 1.54 0 0 0-1.014-.649c-.375-.149-.791-.16-1.173-.03a1.48 1.48 0 0 0-.622.98l-.15.522zm6.445-3.869l-8.86-1.559.339-.975 6.339 1.211-5.611-3.22.287-.824 6.422.97-5.751-2.978.33-.95 7.921 4.257-.294.843-6.616-1 5.8 3.339zm2.311-6.392l-8.23-3.337 1.284-3.165.848.344-.822 2.027 2.721 1.1.668-1.647.819.333-.668 1.647 3.018 1.223.832-2.051.824.334zm1.723-4.16l-8.13-3.573.487-1.106 8.129 3.575zm2.07-4.268c-.237.63-.781 1.095-1.44 1.232a3.96 3.96 0 0 1-2.265-.5l-2.678-1.29a7.42 7.42 0 0 1-.937-.524c-.246-.164-.47-.357-.668-.576-.176-.19-.308-.416-.388-.662-.073-.252-.091-.516-.052-.775a3.05 3.05 0 0 1 .294-.926c.226-.614.713-1.095 1.329-1.315a2.99 2.99 0 0 1 2.009.371l.294.142-.5 1.04-.251-.121-.567-.249a2.24 2.24 0 0 0-.455-.122.78.78 0 0 0-.39.025.87.87 0 0 0-.313.212c-.115.124-.209.266-.279.421-.061.122-.105.252-.13.386a1.02 1.02 0 0 0-.008.326.66.66 0 0 0 .118.285 1.66 1.66 0 0 0 .2.242 1.93 1.93 0 0 0 .3.225q.189.121.35.2.161.079.408.2l2.963 1.427a3.22 3.22 0 0 0 1.429.416 1.19 1.19 0 0 0 .782-1.713 3.48 3.48 0 0 0-1.284-.9l-.559-.27-.485 1.007-.792-.381.969-2.013 3.971 1.914-.339.705-.972-.339c.545.475.685 1.267.336 1.9zm1.545-3.388L33.357 92.5l.586-1.081 3.371 1.828 1.081-1.991-3.374-1.83.586-1.08 7.814 4.233-.59 1.077-3.658-1.983-1.08 1.991 3.658 1.992zm3.424-6.133l-6.834-4.089-.828 1.383-.786-.47 2.256-3.771.786.469-.8 1.333 6.835 4.09zm22.385-27.808l-5.931-6.609.621-.558 5.8 2.716-3.939-4.389.764-.685 5.931 6.609-.586.526-5.946-2.818 4.053 4.516zm6.097-5.161a2.91 2.91 0 0 1-1 .561 1.71 1.71 0 0 1-.948.021c-.319-.089-.619-.239-.882-.441a5 5 0 0 1-.858-.849l-2.127-2.6a3.36 3.36 0 0 1-.894-1.984c.206-1.402 1.45-2.414 2.865-2.332.712.215 1.333.66 1.763 1.267l2.13 2.609a3.46 3.46 0 0 1 .909 2.01 2.17 2.17 0 0 1-.958 1.738zm-1.148-.459a1.41 1.41 0 0 0 .535-.291 1.39 1.39 0 0 0 .392-.467.76.76 0 0 0 .062-.492 1.63 1.63 0 0 0-.19-.5 4.37 4.37 0 0 0-.4-.557l-2.451-3.011a4.09 4.09 0 0 0-.459-.49c-.131-.116-.28-.209-.441-.275a.73.73 0 0 0-.487-.028 1.77 1.77 0 0 0-.927.757.73.73 0 0 0-.07.482 1.57 1.57 0 0 0 .182.487 4.04 4.04 0 0 0 .389.547l2.459 3.012c.142.179.298.346.466.5a1.63 1.63 0 0 0 .45.286.77.77 0 0 0 .491.042zm3.92-1.884l-5.29-7.133 1.423-1.055a2.92 2.92 0 0 1 1.908-.727c.656.111 1.231.503 1.575 1.072q1.021 1.377.358 2.315l3.667 2.827-.957.71-3.414-2.656-.765.567 2.483 3.347zm-2.024-4.793l.372-.275c.351-.212.611-.547.731-.939.021-.418-.128-.826-.413-1.132-.207-.346-.531-.607-.913-.736a1.48 1.48 0 0 0-1.09.4l-.436.324zm6.551 1.456l-4.775-7.489 1-.665 5.284 5.139-2.679-6.87 1-.665 5.051 7.305-.829.551-3.652-5.327 2.325 6.2-.576.381-4.807-4.555 3.491 5.43zm5.636-3.704l-2.909-8.6 1.02-.6 6.15 6.677-1.007.6-1.489-1.719-1.543.915.781 2.139zm-.091-3.577l1.267-.751-2.682-3.073zm5.136.629l-4.225-7.811 1.081-.585 3.8 7.029 1.979-1.071.423.782zm38.926-13.561a2.9 2.9 0 0 1-1.148-.008 1.71 1.71 0 0 1-.833-.451c-.234-.236-.42-.514-.548-.82a4.97 4.97 0 0 1-.325-1.162l-.559-3.316a3.35 3.35 0 0 1 .2-2.167c.874-1.116 2.455-1.379 3.644-.608.51.54.827 1.234.9 1.974l.559 3.322c.175.736.105 1.508-.2 2.2a2.17 2.17 0 0 1-1.69 1.036zm-.77-.968a1.38 1.38 0 0 0 .609.012 1.4 1.4 0 0 0 .571-.21.77.77 0 0 0 .3-.4 1.63 1.63 0 0 0 .081-.527 4.3 4.3 0 0 0-.069-.681l-.645-3.835a4.31 4.31 0 0 0-.156-.653 1.6 1.6 0 0 0-.247-.458.74.74 0 0 0-.408-.266 1.77 1.77 0 0 0-1.18.2.73.73 0 0 0-.3.385c-.056.166-.084.339-.083.514a4.13 4.13 0 0 0 .066.667l.647 3.834a4.26 4.26 0 0 0 .157.666 1.66 1.66 0 0 0 .25.472.77.77 0 0 0 .407.281zm5.86.125l-3.017-8.581 1.141-.137 2.167 6.325.538-6.651 1.115-.135-.876 9.049zm3.936-.436l-.7-8.852 3.405-.27.072.913-2.18.173.233 2.925 1.771-.14.07.881-1.771.141.257 3.246 2.207-.175.07.886zm4.421-.336l-.338-8.873 1.77-.067a2.92 2.92 0 0 1 1.986.476c.477.463.73 1.11.693 1.774q.065 1.714-1.011 2.113l1.429 4.4-1.191.046-1.318-4.12-.952.036.159 4.164zm1.036-5.1l.463-.018c.409.024.813-.105 1.133-.362a1.54 1.54 0 0 0 .3-1.166 1.69 1.69 0 0 0-.339-1.123 1.48 1.48 0 0 0-1.126-.284l-.542.021zm5.728 4.912l-1.292-8.9 1.032.017.833 6.4 1.3-6.336.873.015 1.089 6.4 1.028-6.394 1.006.017-1.565 8.854-.893-.015-1.119-6.6-1.355 6.555zm6.799.193l.6-8.86 3.408.23-.062.913-2.182-.146-.2 2.928 1.773.12-.059.882-1.773-.12-.219 3.249 2.208.149-.059.887zm4.478.336l.855-8.839 1.2.117-.855 8.839zm4.696.634c-.673-.029-1.284-.401-1.619-.985a3.96 3.96 0 0 1-.232-2.308l.39-2.947c.044-.355.113-.707.206-1.053a3.59 3.59 0 0 1 .339-.815 1.78 1.78 0 0 1 .509-.575c.216-.148.462-.247.72-.291a3.05 3.05 0 0 1 .972-.009 2.2 2.2 0 0 1 1.664.852 3 3 0 0 1 .275 2.024l-.043.323-1.145-.15.036-.276.06-.616a2.24 2.24 0 0 0-.026-.47.78.78 0 0 0-.145-.363.87.87 0 0 0-.3-.231c-.154-.071-.318-.117-.487-.135-.135-.019-.273-.019-.408 0a1.07 1.07 0 0 0-.313.094.67.67 0 0 0-.233.2 1.76 1.76 0 0 0-.168.27 1.83 1.83 0 0 0-.121.351l-.085.4-.065.45-.431 3.26a3.23 3.23 0 0 0 .05 1.487 1.19 1.19 0 0 0 1.871.21c.264-.459.421-.972.457-1.5l.081-.616-1.108-.146.116-.871 2.214.293-.577 4.364-.775-.1.018-1.03c-.282.664-.988 1.042-1.697.909zm3.706.411l1.6-8.735 1.208.22-.688 3.773 2.228.407.69-3.773 1.209.221-1.6 8.736-1.209-.221.748-4.094-2.23-.407-.748 4.093zm6.88 1.347l1.77-7.765-1.572-.358.2-.893 4.285.976-.2.893-1.516-.345-1.769 7.765zm37.351 15.291a2.93 2.93 0 0 1-.859-.762 1.73 1.73 0 0 1-.33-.889c-.021-.331.022-.663.127-.978a5 5 0 0 1 .521-1.089l1.764-2.864c.346-.66.903-1.185 1.581-1.494 1.393-.266 2.757.578 3.143 1.942a3.35 3.35 0 0 1-.62 2.081l-1.767 2.868c-.354.667-.916 1.2-1.6 1.518a2.17 2.17 0 0 1-1.96-.333zm.057-1.235a1.65 1.65 0 0 0 1.019.627c.169.022.34-.014.486-.1a1.62 1.62 0 0 0 .408-.343 4.27 4.27 0 0 0 .4-.558l2.039-3.311a4.14 4.14 0 0 0 .313-.593 1.6 1.6 0 0 0 .116-.507.74.74 0 0 0-.133-.469 1.5 1.5 0 0 0-.454-.4 1.48 1.48 0 0 0-.565-.224c-.165-.026-.334.007-.478.091a1.59 1.59 0 0 0-.4.331 4.19 4.19 0 0 0-.39.547l-2.039 3.311c-.123.191-.23.392-.321.6a1.65 1.65 0 0 0-.122.519.77.77 0 0 0 .122.479zm3.053 3.078l5.007-7.334 1.664 1.137c.559.318.976.837 1.167 1.452a2.2 2.2 0 0 1-.469 1.715q-.958 1.4-2.1.834c.332.334.52.785.524 1.256a2.71 2.71 0 0 1-.551 1.443c-.344.576-.881 1.012-1.516 1.229-.627.146-1.287-.006-1.788-.41zm1.516-.042l.685.468c.305.266.716.377 1.113.3a2.12 2.12 0 0 0 .959-.886 1.96 1.96 0 0 0 .43-1.247c-.071-.418-.328-.782-.7-.987l-.6-.411zm2.416-3.538l.6.409a1.35 1.35 0 0 0 1.064.314 1.74 1.74 0 0 0 .888-.778 2.45 2.45 0 0 0 .227-.4 1.67 1.67 0 0 0 .11-.33.58.58 0 0 0-.016-.293 1.2 1.2 0 0 0-.115-.261c-.063-.097-.139-.184-.227-.258a3.92 3.92 0 0 0-.312-.259l-.407-.288-.237-.162zm.777 6.848l5.305-7.123 2.739 2.041-.547.735-1.749-1.307-1.753 2.354 1.424 1.061-.527.708-1.426-1.061-1.945 2.611 1.774 1.322-.531.713zm5.099 4.042a2.09 2.09 0 0 1-.885-1.6c.015-.685.255-1.345.681-1.881l1.041.455q-1.106 1.557-.224 2.269c.196.182.461.271.727.245a1.1 1.1 0 0 0 .683-.45c.111-.135.204-.285.275-.445a1.48 1.48 0 0 0 .112-.487 2.92 2.92 0 0 0 0-.458l-.063-.536-.32-1.959a2.4 2.4 0 0 1 .568-2.068 2 2 0 0 1 1.377-.82 2.13 2.13 0 0 1 1.526.527 2.02 2.02 0 0 1 .889 1.423 2.89 2.89 0 0 1-.6 1.758l-.989-.426q.165-.239.277-.437a2.48 2.48 0 0 0 .188-.429 1.2 1.2 0 0 0 .071-.418c-.006-.133-.045-.263-.111-.379a1.07 1.07 0 0 0-.322-.346.9.9 0 0 0-1.37.147 1.43 1.43 0 0 0-.307.593 2.01 2.01 0 0 0 0 .709l.329 1.965a4.6 4.6 0 0 1 .012 1.455 2.69 2.69 0 0 1-.588 1.275c-.338.465-.855.768-1.426.834a2.09 2.09 0 0 1-1.551-.516zm2.432 1.88l5.838-6.692 2.573 2.245-.6.69-1.648-1.438-1.93 2.213 1.34 1.168-.587.661-1.339-1.169-2.141 2.454 1.668 1.455-.584.671zm22.818 24.113l7.533-4.7 1.809 2.9-.777.485-1.158-1.855-2.49 1.555.942 1.507-.75.468-.942-1.507-2.762 1.724 1.172 1.877-.754.471zm2.063 3.294l4.946-.712 2.776-3.67.567.993-2.055 2.719 3.327-.492.568.994-4.683.537-2.982 3.947-.57-1 2.192-2.9-3.523.572zm3.264 5.862l7.063-3.68-.745-1.43.812-.422 2.03 3.9-.813.423-.718-1.378-7.063 3.679zm1.585 3.073l8.034-3.781.755 1.6c.352.609.472 1.324.338 2.014-.238.621-.736 1.108-1.362 1.332q-1.551.73-2.339-.1l-3.495 3.039-.509-1.079 3.277-2.823-.405-.861-3.77 1.774zm5.1-1.041l.2.419a1.67 1.67 0 0 0 .777.9 1.54 1.54 0 0 0 1.191-.18 1.7 1.7 0 0 0 .9-.751 1.48 1.48 0 0 0-.179-1.147l-.231-.492zm-2.729 6.177l8.182-3.45 1.327 3.147-.843.357-.849-2.015-2.7 1.14.69 1.638-.814.344-.69-1.638-3 1.265.86 2.039-.819.346zm4.115 10.354l8.346-3.035 1.167 3.21-.861.314-.747-2.056-2.758 1 .607 1.67-.83.3-.607-1.669-3.06 1.113.756 2.079-.835.3zm-2.398-6.285l8.393-2.905.413 1.128-6.224 3.946 7.3-1.009.414 1.129-8.279 3.215-.343-.935 6.025-2.314-6.574.821-.238-.649 5.553-3.616-6.092 2.134zm3.732 10.295l8.47-2.668.369 1.173-7.622 2.4.676 2.146-.848.267zm1.55 5.127l3.021-.832 5.034-3.363.3 1.1-3.768 2.434 4.479.145.308 1.119-6.044-.3-3.021.833zm1.947 8.423c-.087-.376-.099-.766-.034-1.147.058-.317.204-.612.421-.85a2.6 2.6 0 0 1 .8-.578 5.04 5.04 0 0 1 1.15-.367l3.294-.679a3.35 3.35 0 0 1 2.171.125 2.74 2.74 0 0 1 .742 3.621 3.36 3.36 0 0 1-1.941.975l-3.3.681a3.46 3.46 0 0 1-2.2-.124 2.17 2.17 0 0 1-1.103-1.657zm.939-.8a1.39 1.39 0 0 0 .01.609 1.41 1.41 0 0 0 .232.564c.101.137.245.236.409.282.172.049.35.07.529.062a4.27 4.27 0 0 0 .678-.095l3.809-.785a3.96 3.96 0 0 0 .646-.18 1.55 1.55 0 0 0 .449-.263c.129-.107.217-.254.251-.418a1.77 1.77 0 0 0-.242-1.172c-.097-.138-.238-.239-.4-.285a1.55 1.55 0 0 0-.515-.065 4.14 4.14 0 0 0-.665.091l-3.809.785a4.33 4.33 0 0 0-.66.182c-.167.063-.323.153-.461.266a.77.77 0 0 0-.26.417zm-.145 4.339l8.772-1.384.314 1.992a2.54 2.54 0 0 1-.257 1.844 2.2 2.2 0 0 1-1.571.835q-1.677.265-2.049-.958c-.017.471-.216.916-.555 1.243a2.72 2.72 0 0 1-1.428.589c-.655.145-1.341.052-1.934-.261a2.1 2.1 0 0 1-.927-1.582zm1.07 1.076l.129.819a1.31 1.31 0 0 0 .543 1.018 2.12 2.12 0 0 0 1.3.091c.45-.037.874-.229 1.2-.542a1.4 1.4 0 0 0 .238-1.188l-.113-.72zm4.232-.668l.113.715a1.35 1.35 0 0 0 .5.99c.367.174.783.215 1.176.114a2.44 2.44 0 0 0 .446-.109 1.7 1.7 0 0 0 .316-.147.57.57 0 0 0 .2-.211 1.05 1.05 0 0 0 .143-.6 3.93 3.93 0 0 0-.026-.405l-.07-.493-.044-.283zm-4.457 5.216l8.822-1.024.394 3.392-.909.106-.253-2.172-2.915.339.2 1.765-.877.1-.205-1.765-3.235.376.256 2.2-.883.1zm.559 6.51a2.09 2.09 0 0 1 .559-1.743c.508-.458 1.152-.737 1.834-.795l.384 1.07q-1.892.263-1.806 1.393a.94.94 0 0 0 .32.7c.233.163.519.23.8.187.175-.013.348-.049.513-.107a1.45 1.45 0 0 0 .431-.252 3.19 3.19 0 0 0 .334-.313l.346-.413 1.206-1.576a2.39 2.39 0 0 1 1.894-1.005 2 2 0 0 1 1.541.439 2.13 2.13 0 0 1 .664 1.473c.1.577-.056 1.169-.426 1.623-.466.434-1.061.703-1.695.764l-.369-1.012q.288-.043.509-.1a2.49 2.49 0 0 0 .442-.156 1.23 1.23 0 0 0 .352-.236.83.83 0 0 0 .2-.341c.046-.153.056-.314.03-.472a.9.9 0 0 0-1.046-.9 1.44 1.44 0 0 0-.641.183 2.01 2.01 0 0 0-.515.488l-1.2 1.586c-.295.389-.649.728-1.05 1.007a2.7 2.7 0 0 1-1.33.446 2.06 2.06 0 0 1-1.586-.465 2.09 2.09 0 0 1-.695-1.473zm.298 3.052l8.873-.342.131 3.413-.915.035-.085-2.185-2.933.113.069 1.775-.884.034-.068-1.775-3.254.126.085 2.212-.888.034z"/></g><path d="M159.303 10.648c41.144-.037 80.212 18.067 106.781 49.482-38.499-49.482-104.179-69.045-163.478-48.691S3.486 87.567 3.491 150.262a148.28 148.28 0 0 0 .24 8.33h15.8a141.39 141.39 0 0 1-.229-7.946C19.311 73.33 81.987 10.655 159.303 10.648z" fill="#bbbdbf" fill-rule="evenodd" opacity=".6" style="mix-blend-mode:multiply"/></svg>